<?xml version="1.0" encoding="utf-8"?>
<!-- Generator: Adobe Illustrator 27.5.0, SVG Export Plug-In . SVG Version: 6.00 Build 0)  -->
<svg version="1.1" xmlns="http://www.w3.org/2000/svg" xmlns:xlink="http://www.w3.org/1999/xlink" x="0px" y="0px"
	 viewBox="0 0 3710 3710" style="enable-background:new 0 0 3710 3710;" xml:space="preserve">
<g id="Background">
	<g>
		<g>
			<rect style="fill:#FFFFFF;" width="3710" height="3710"/>
		</g>
	</g>
</g>
<g id="Illustration">
	<g>
		<linearGradient id="SVGID_1_" gradientUnits="userSpaceOnUse" x1="3423.394" y1="3591.7732" x2="1371.9664" y2="1377.5336">
			<stop  offset="0" style="stop-color:#B37CFF"/>
			<stop  offset="1" style="stop-color:#F895E7"/>
		</linearGradient>
		<path style="opacity:0.3;fill:url(#SVGID_1_);" d="M3137.514,2329.961c-281.881,658.864-1025.956,941.862-1608.951,893.61
			c-159.181-13.175-479.457-39.683-729.532-276.169c-480.25-454.158-406.287-1403.475,53.45-1962.38
			c59.205-71.975,469.011-554.203,1107.617-547.749c467.552,4.726,795.723,268.84,835.627,301.744
			c50.41,41.566,161.594,140.34,261.797,297.039C3292.965,1404.244,3313.662,1918.236,3137.514,2329.961z"/>
		<g>
			<g>
				<path style="fill:#EAC4F9;" d="M2350.67,2385.736c-0.877,0-1.761-0.274-2.516-0.845c-1.84-1.392-2.205-4.011-0.814-5.855
					c3.381-4.468,6.888-8.928,10.425-13.253c1.457-1.791,4.093-2.044,5.878-0.592c1.787,1.461,2.05,4.093,0.59,5.879
					c-3.468,4.244-6.91,8.622-10.225,13.008C2353.185,2385.165,2351.935,2385.736,2350.67,2385.736z"/>
				<path style="fill:#EAC4F9;" d="M3131.6,2564.585c-1.952,0-3.697-1.375-4.095-3.362c-2.207-11.078-4.884-22.209-7.958-33.075
					c-0.628-2.224,0.663-4.529,2.885-5.158c2.212-0.657,4.529,0.661,5.158,2.881c3.134,11.083,5.863,22.426,8.114,33.72
					c0.451,2.264-1.02,4.464-3.283,4.912C3132.145,2564.561,3131.87,2564.585,3131.6,2564.585z M3104.986,2478.584
					c-1.624,0-3.166-0.951-3.846-2.538c-4.423-10.36-9.327-20.703-14.577-30.741c-1.069-2.048-0.278-4.57,1.767-5.639
					c2.044-1.077,4.568-0.277,5.639,1.763c5.349,10.233,10.35,20.777,14.858,31.337c0.906,2.122-0.082,4.578-2.203,5.484
					C3106.09,2478.478,3105.533,2478.584,3104.986,2478.584z M3061.363,2399.821c-1.324,0-2.624-0.624-3.436-1.795
					c-6.457-9.299-13.347-18.439-20.475-27.167c-1.461-1.787-1.193-4.419,0.594-5.88c1.783-1.457,4.415-1.2,5.877,0.592
					c7.267,8.899,14.288,18.215,20.867,27.689c1.316,1.893,0.847,4.496-1.049,5.814
					C3063.016,2399.581,3062.185,2399.821,3061.363,2399.821z M2399.005,2331.769c-1.108,0-2.215-0.441-3.038-1.31
					c-1.583-1.677-1.51-4.321,0.167-5.904c8.356-7.895,17.142-15.571,26.112-22.813c1.792-1.452,4.425-1.171,5.876,0.628
					c1.449,1.795,1.167,4.427-0.628,5.876c-8.801,7.104-17.421,14.636-25.618,22.381
					C2401.068,2331.389,2400.036,2331.769,2399.005,2331.769z M3002.729,2331.524c-1.033,0-2.067-0.38-2.875-1.146
					c-8.187-7.761-16.795-15.293-25.578-22.385c-1.795-1.452-2.075-4.08-0.624-5.875c1.448-1.795,4.082-2.073,5.875-0.628
					c8.954,7.234,17.727,14.914,26.075,22.825c1.675,1.587,1.747,4.231,0.159,5.904
					C3004.94,2331.088,3003.834,2331.524,3002.729,2331.524z M2470.43,2276.938c-1.402,0-2.769-0.702-3.56-1.983
					c-1.212-1.963-0.602-4.537,1.361-5.75c9.823-6.067,19.98-11.808,30.184-17.068c2.051-1.061,4.572-0.253,5.627,1.799
					c1.059,2.052,0.253,4.57-1.799,5.627c-10.013,5.162-19.98,10.797-29.621,16.75
					C2471.938,2276.738,2471.179,2276.938,2470.43,2276.938z M2931.355,2276.717c-0.747,0-1.503-0.2-2.187-0.621
					c-9.583-5.9-19.553-11.51-29.638-16.676c-2.052-1.048-2.864-3.566-1.814-5.623c1.053-2.052,3.57-2.864,5.625-1.812
					c10.276,5.26,20.44,10.98,30.209,16.995c1.965,1.212,2.577,3.783,1.367,5.749
					C2934.128,2276.011,2932.759,2276.717,2931.355,2276.717z M2551.451,2237.673c-1.708,0-3.311-1.053-3.927-2.75
					c-0.788-2.171,0.332-4.566,2.501-5.358c10.829-3.929,21.944-7.479,33.038-10.543c2.222-0.612,4.523,0.686,5.139,2.914
					c0.614,2.224-0.689,4.525-2.916,5.141c-10.88,3.007-21.785,6.488-32.41,10.344
					C2552.406,2237.591,2551.925,2237.673,2551.451,2237.673z M2850.267,2237.664c-0.471,0-0.949-0.078-1.418-0.249
					c-10.619-3.827-21.526-7.292-32.422-10.291c-2.226-0.612-3.533-2.909-2.921-5.137c0.612-2.224,2.913-3.529,5.137-2.917
					c11.104,3.052,22.221,6.582,33.042,10.487c2.171,0.783,3.295,3.174,2.511,5.345
					C2853.582,2236.608,2851.979,2237.664,2850.267,2237.664z M2762.927,2215.908c-0.198,0-0.398-0.012-0.6-0.041
					c-11.164-1.604-22.55-2.779-33.84-3.505c-2.303-0.147-4.049-2.134-3.903-4.439c0.149-2.301,2.169-3.987,4.437-3.901
					c11.509,0.739,23.114,1.943,34.493,3.571c2.283,0.331,3.87,2.444,3.542,4.729
					C2766.759,2214.406,2764.971,2215.908,2762.927,2215.908z M2638.789,2215.839c-2.046,0-3.834-1.506-4.131-3.591
					c-0.325-2.281,1.263-4.398,3.548-4.725c11.4-1.624,23.007-2.815,34.495-3.537c2.338-0.041,4.289,1.607,4.433,3.909
					c0.145,2.302-1.604,4.284-3.907,4.431c-11.272,0.71-22.658,1.877-33.842,3.472
					C2639.185,2215.826,2638.987,2215.839,2638.789,2215.839z"/>
				<path style="fill:#EAC4F9;" d="M3139.828,2636.75c-2.248,0-4.105-1.788-4.175-4.052c-0.167-5.48-0.442-11.037-0.818-16.521
					c-0.159-2.302,1.579-4.296,3.883-4.456c2.291-0.049,4.297,1.583,4.454,3.885c0.384,5.586,0.665,11.254,0.835,16.84
					c0.069,2.305-1.742,4.231-4.05,4.305C3139.914,2636.75,3139.871,2636.75,3139.828,2636.75z"/>
			</g>
			<g>
				<path style="fill:#EAC4F9;" d="M3016.245,2956.163c-1.049,0-2.099-0.391-2.912-1.179c-1.655-1.608-1.693-4.256-0.085-5.908
					c3.852-3.966,7.653-8.034,11.298-12.094c1.541-1.706,4.185-1.849,5.9-0.314c1.716,1.542,1.857,4.187,0.314,5.904
					c-3.717,4.134-7.592,8.279-11.519,12.323C3018.424,2955.739,3017.334,2956.163,3016.245,2956.163z"/>
				<path style="fill:#EAC4F9;" d="M2701.393,3089.578l-3.784-0.016c-2.308-0.025-4.16-1.914-4.138-4.219
					c0.022-2.293,1.889-4.137,4.178-4.137c0.012,0,0.027,0,0.041,0l3.703,0.016c9.868,0,19.879-0.343,29.756-1.02
					c2.313-0.049,4.296,1.583,4.453,3.884c0.157,2.301-1.581,4.297-3.882,4.456
					C2721.654,3089.227,2711.452,3089.578,2701.393,3089.578z M2642.902,3085.673c-0.186,0-0.374-0.012-0.561-0.037
					c-11.217-1.505-22.525-3.464-33.614-5.822c-2.256-0.481-3.697-2.701-3.215-4.958c0.481-2.26,2.691-3.677,4.958-3.219
					c10.878,2.317,21.977,4.243,32.981,5.716c2.287,0.306,3.893,2.412,3.586,4.696
					C2646.756,3084.147,2644.962,3085.673,2642.902,3085.673z M2785.854,3081.36c-1.957,0-3.703-1.379-4.094-3.37
					c-0.447-2.265,1.028-4.464,3.293-4.909c10.917-2.146,21.875-4.75,32.569-7.728c2.218-0.633,4.525,0.677,5.147,2.901
					c0.62,2.224-0.679,4.525-2.903,5.145c-10.901,3.04-22.071,5.692-33.202,7.884
					C2786.393,3081.336,2786.122,3081.36,2785.854,3081.36z M2556.721,3065.166c-0.455,0-0.918-0.073-1.371-0.232
					c-10.723-3.721-21.411-7.9-31.771-12.417c-2.114-0.922-3.081-3.387-2.158-5.5c0.918-2.118,3.378-3.089,5.498-2.163
					c10.164,4.431,20.653,8.532,31.174,12.188c2.179,0.755,3.333,3.138,2.577,5.317
					C2560.069,3064.084,2558.451,3065.166,2556.721,3065.166z M2870.599,3055.507c-1.632,0-3.183-0.963-3.854-2.563
					c-0.893-2.126,0.106-4.574,2.234-5.468c10.205-4.284,20.412-9.042,30.341-14.146c2.049-1.057,4.574-0.245,5.627,1.807
					c1.055,2.052,0.245,4.57-1.808,5.627c-10.119,5.198-20.524,10.05-30.925,14.416
					C2871.687,3055.406,2871.138,3055.507,2870.599,3055.507z M2476.393,3027.838c-0.726,0-1.461-0.188-2.13-0.587
					c-9.726-5.778-19.355-12.017-28.624-18.541c-1.887-1.326-2.34-3.933-1.012-5.819c1.33-1.893,3.933-2.342,5.822-1.012
					c9.093,6.398,18.541,12.518,28.081,18.19c1.985,1.179,2.636,3.742,1.459,5.725
					C2479.209,3027.108,2477.819,3027.838,2476.393,3027.838z M2948.424,3013.154c-1.336,0-2.648-0.637-3.456-1.824
					c-1.3-1.906-0.808-4.509,1.098-5.806c9.187-6.263,18.247-12.959,26.926-19.896c1.805-1.44,4.429-1.146,5.874,0.657
					c1.441,1.8,1.146,4.432-0.655,5.872c-8.844,7.067-18.076,13.889-27.436,20.271
					C2950.053,3012.917,2949.233,3013.154,2948.424,3013.154z M2405.244,2975.113c-1.004,0-2.014-0.359-2.813-1.094
					c-8.346-7.61-16.519-15.668-24.292-23.948c-1.579-1.681-1.495-4.325,0.186-5.904c1.679-1.579,4.325-1.505,5.906,0.184
					c7.626,8.124,15.646,16.027,23.831,23.499c1.706,1.555,1.826,4.195,0.271,5.9
					C2407.509,2974.656,2406.379,2975.113,2405.244,2975.113z M2346.198,2909.097c-1.292,0-2.565-0.596-3.383-1.722
					c-5.239-7.202-10.344-14.677-15.169-22.222c-1.3-2.032-2.581-4.072-3.842-6.112c-1.212-1.967-0.602-4.542,1.363-5.749
					c1.961-1.216,4.535-0.6,5.749,1.359c1.236,2.007,2.493,4.006,3.768,5.998c4.737,7.406,9.746,14.742,14.887,21.813
					c1.359,1.865,0.945,4.476-0.92,5.835C2347.909,2908.835,2347.049,2909.097,2346.198,2909.097z M2301.469,2832.619
					c-1.585,0-3.099-0.906-3.803-2.44c-4.711-10.303-9.079-20.92-12.981-31.557c-0.793-2.167,0.318-4.57,2.485-5.362
					c2.16-0.804,4.564,0.318,5.362,2.48c3.828,10.438,8.114,20.855,12.737,30.962c0.959,2.097,0.034,4.578-2.063,5.537
					C2302.642,2832.497,2302.051,2832.619,2301.469,2832.619z M2272.98,2748.731c-1.903,0-3.625-1.31-4.068-3.244
					c-2.532-11.033-4.664-22.316-6.337-33.532c-0.339-2.281,1.234-4.407,3.517-4.75c2.252-0.339,4.409,1.232,4.749,3.517
					c1.641,11.004,3.732,22.075,6.215,32.896c0.516,2.248-0.89,4.492-3.138,5.006
					C2273.604,2748.698,2273.29,2748.731,2272.98,2748.731z"/>
				<path style="fill:#EAC4F9;" d="M2262.031,2660.653c-2.265,0-4.125-1.812-4.174-4.085c-0.125-5.565-0.143-11.237-0.055-16.864
					c0.037-2.31,1.951-4.06,4.244-4.113c2.308,0.037,4.15,1.938,4.113,4.243c-0.088,5.521-0.069,11.087,0.051,16.546
					c0.053,2.31-1.775,4.219-4.082,4.272C2262.094,2660.653,2262.063,2660.653,2262.031,2660.653z"/>
			</g>
			<g>
				
					<linearGradient id="SVGID_00000058547189187474935390000005778103008857373598_" gradientUnits="userSpaceOnUse" x1="3329.114" y1="392.2591" x2="4008.3701" y2="392.2591" gradientTransform="matrix(0.3674 0.93 -0.93 0.3674 1720.8397 -911.5253)">
					<stop  offset="0" style="stop-color:#A737D5"/>
					<stop  offset="1" style="stop-color:#EF497A"/>
				</linearGradient>
				<path style="fill:url(#SVGID_00000058547189187474935390000005778103008857373598_);" d="M2367.095,2598.828
					c-0.552,2.179,0.339,4.469,2.218,5.701l53.632,35.158c-0.543,29.944,3.684,60.189,13.001,89.568l-41.362,48.953
					c-1.452,1.716-1.652,4.165-0.503,6.096l39.362,66.088c1.151,1.931,3.401,2.92,5.6,2.463l62.745-13.053
					c21.396,22.183,45.975,40.307,72.564,54.09l5.37,63.904c0.189,2.24,1.776,4.114,3.956,4.666l74.564,18.897
					c2.18,0.552,4.469-0.339,5.701-2.219l35.159-53.631c29.943,0.543,60.189-3.685,89.567-13.001l48.953,41.363
					c1.717,1.451,4.165,1.653,6.097,0.503l66.088-39.363c1.931-1.15,2.92-3.399,2.462-5.6l-13.054-62.745
					c22.185-21.395,40.308-45.974,54.091-72.563l63.905-5.37c2.239-0.188,4.113-1.778,4.665-3.956l18.898-74.564
					c0.553-2.18-0.339-4.469-2.219-5.701l-53.632-35.159c0.545-29.943-3.684-60.189-13-89.568l41.364-48.953
					c1.45-1.716,1.652-4.165,0.502-6.096l-39.363-66.089c-1.15-1.931-3.399-2.92-5.6-2.462l-62.744,13.054
					c-21.395-22.185-45.976-40.308-72.564-54.092l-5.37-63.903c-0.187-2.24-1.777-4.115-3.956-4.667l-74.564-18.898
					c-2.178-0.552-4.469,0.338-5.701,2.218l-35.158,53.631c-29.944-0.543-60.189,3.685-89.567,13.001l-48.954-41.364
					c-1.715-1.45-4.164-1.652-6.095-0.501l-66.088,39.362c-1.931,1.15-2.92,3.398-2.463,5.6l13.054,62.744
					c-22.184,21.395-40.306,45.976-54.091,72.563l-63.904,5.371c-2.24,0.188-4.114,1.777-4.667,3.956L2367.095,2598.828z"/>
				<path style="fill:#FFFFFF;" d="M2703.935,2719.092c-0.024,0-0.047,0-0.071,0c-19.918-0.021-38.636-7.794-52.708-21.891
					c-14.071-14.097-21.812-32.83-21.791-52.746c0.018-19.92,7.793-38.641,21.891-52.71c29.101-29.052,76.413-29.003,105.457,0.098
					c14.071,14.098,21.811,32.831,21.791,52.747c-0.018,19.92-7.793,38.641-21.891,52.71
					C2742.533,2711.351,2723.827,2719.092,2703.935,2719.092z M2703.933,2582.486c-16.55,0-32.108,6.439-43.823,18.129
					c-11.729,11.707-18.196,27.277-18.211,43.848c-0.016,16.57,6.423,32.157,18.127,43.884c11.707,11.727,27.279,18.194,43.85,18.21
					c0.019,0,0.041,0,0.059,0c16.55,0,32.108-6.439,43.823-18.129c11.729-11.706,18.196-27.277,18.211-43.847
					c0.016-16.57-6.423-32.157-18.127-43.885c-11.706-11.727-27.279-18.194-43.849-18.21
					C2703.974,2582.486,2703.952,2582.486,2703.933,2582.486z"/>
				<path style="fill:#FFFFFF;" d="M2705.865,2836.626c-65.453,0.004-129.312-33.447-165.17-93.648
					c-7.004-11.76-12.753-24.246-17.083-37.107l11.878-3.999c4.05,12.02,9.423,23.694,15.972,34.691
					c39.757,66.746,116.363,98.324,188.561,84.235c0.135-0.025,0.27-0.053,0.404-0.078c0.141-0.029,0.273-0.053,0.414-0.082
					c19.425-3.88,38.514-11.07,56.478-21.769c41.156-24.51,70.304-63.583,82.074-110.018c3.729-14.718,5.572-29.615,5.57-44.41
					c-0.006-31.892-8.589-63.311-25.333-91.424c-50.606-84.961-160.896-112.915-245.857-62.311
					c-27.936,16.639-50.798,40.485-66.112,68.958l-11.037-5.941c16.386-30.468,40.848-55.983,70.735-73.789
					c90.896-54.13,208.899-24.233,263.039,66.669c17.917,30.08,27.097,63.694,27.104,97.813c0.002,15.832-1.969,31.77-5.959,47.512
					c-12.59,49.682-43.776,91.49-87.809,117.714C2773.038,2827.926,2739.24,2836.626,2705.865,2836.626z"/>
			</g>
		</g>
		<g>
			<g>
				<path style="fill:#EAC4F9;" d="M665.205,655.672c-1.036,0-2.078-0.323-2.969-0.997c-2.172-1.642-2.603-4.734-0.961-6.911
					c3.99-5.274,8.13-10.538,12.305-15.643c1.72-2.114,4.831-2.413,6.938-0.698c2.109,1.724,2.42,4.831,0.696,6.94
					c-4.094,5.009-8.156,10.177-12.07,15.354C668.174,654.998,666.698,655.672,665.205,655.672z"/>
				<path style="fill:#EAC4F9;" d="M1586.972,866.776c-2.305,0-4.363-1.623-4.833-3.969c-2.605-13.076-5.765-26.215-9.394-39.04
					c-0.742-2.625,0.782-5.346,3.405-6.088c2.61-0.775,5.346,0.78,6.088,3.4c3.699,13.081,6.921,26.47,9.577,39.802
					c0.532,2.672-1.204,5.269-3.875,5.798C1587.615,866.747,1587.29,866.776,1586.972,866.776z M1555.558,765.265
					c-1.917,0-3.737-1.122-4.539-2.996c-5.221-12.228-11.01-24.437-17.206-36.285c-1.262-2.418-0.328-5.394,2.086-6.656
					c2.413-1.271,5.391-0.327,6.656,2.081c6.314,12.079,12.216,24.524,17.538,36.988c1.069,2.504-0.096,5.404-2.601,6.473
					C1556.861,765.14,1556.203,765.265,1555.558,765.265z M1504.068,672.297c-1.563,0-3.097-0.737-4.055-2.119
					c-7.622-10.976-15.754-21.764-24.168-32.067c-1.724-2.109-1.409-5.216,0.701-6.94c2.105-1.719,5.211-1.416,6.938,0.698
					c8.578,10.504,16.864,21.5,24.63,32.683c1.553,2.235,0.999,5.307-1.238,6.863
					C1506.019,672.013,1505.038,672.297,1504.068,672.297z M722.258,591.973c-1.307,0-2.615-0.52-3.585-1.546
					c-1.869-1.98-1.782-5.101,0.197-6.969c9.864-9.319,20.233-18.379,30.821-26.928c2.115-1.714,5.223-1.382,6.936,0.742
					c1.71,2.119,1.378,5.226-0.742,6.936c-10.388,8.385-20.563,17.276-30.238,26.417
					C724.692,591.524,723.474,591.973,722.258,591.973z M1434.859,591.684c-1.219,0-2.44-0.448-3.393-1.353
					c-9.664-9.161-19.824-18.051-30.191-26.422c-2.119-1.714-2.449-4.816-0.737-6.935c1.71-2.119,4.818-2.447,6.935-0.742
					c10.569,8.539,20.924,17.603,30.778,26.942c1.977,1.874,2.062,4.994,0.188,6.969
					C1437.47,591.168,1436.165,591.684,1434.859,591.684z M806.563,527.252c-1.655,0-3.268-0.828-4.202-2.341
					c-1.43-2.316-0.71-5.355,1.606-6.786c11.595-7.161,23.583-13.938,35.628-20.146c2.421-1.252,5.397-0.299,6.642,2.124
					c1.25,2.422,0.299,5.394-2.124,6.642c-11.819,6.093-23.583,12.744-34.964,19.771
					C808.343,527.017,807.447,527.252,806.563,527.252z M1350.614,526.992c-0.881,0-1.774-0.236-2.581-0.732
					c-11.311-6.964-23.079-13.586-34.983-19.684c-2.423-1.237-3.381-4.209-2.141-6.637c1.243-2.423,4.214-3.381,6.639-2.138
					c12.13,6.208,24.127,12.961,35.657,20.06c2.319,1.431,3.041,4.465,1.614,6.786
					C1353.887,526.159,1352.271,526.992,1350.614,526.992z M902.196,480.906c-2.016,0-3.909-1.243-4.635-3.246
					c-0.93-2.563,0.392-5.389,2.952-6.324c12.782-4.638,25.901-8.828,38.997-12.445c2.623-0.723,5.339,0.809,6.066,3.439
					c0.725,2.625-0.814,5.341-3.441,6.068c-12.842,3.549-25.713,7.658-38.255,12.209
					C903.323,480.81,902.755,480.906,902.196,480.906z M1254.902,480.896c-0.556,0-1.12-0.092-1.674-0.294
					c-12.534-4.517-25.408-8.606-38.269-12.146c-2.627-0.722-4.171-3.434-3.448-6.064c0.722-2.625,3.438-4.166,6.064-3.443
					c13.107,3.603,26.229,7.769,39.002,12.378c2.562,0.925,3.889,3.747,2.964,6.309
					C1258.815,479.649,1256.922,480.896,1254.902,480.896z M1151.811,455.216c-0.234,0-0.469-0.015-0.708-0.048
					c-13.177-1.893-26.616-3.28-39.943-4.137c-2.719-0.173-4.78-2.519-4.607-5.24c0.176-2.716,2.56-4.706,5.237-4.604
					c13.584,0.872,27.282,2.293,40.714,4.214c2.695,0.39,4.568,2.885,4.181,5.582
					C1156.333,453.444,1154.223,455.216,1151.811,455.216z M1005.285,455.135c-2.415,0-4.525-1.777-4.876-4.238
					c-0.383-2.692,1.49-5.192,4.188-5.577c13.456-1.917,27.156-3.323,40.716-4.175c2.76-0.048,5.062,1.897,5.233,4.614
					c0.171,2.716-1.893,5.057-4.612,5.23c-13.304,0.838-26.744,2.216-39.946,4.099
					C1005.752,455.12,1005.518,455.135,1005.285,455.135z"/>
				<path style="fill:#EAC4F9;" d="M1596.684,951.956c-2.654,0-4.845-2.11-4.927-4.783c-0.197-6.468-0.522-13.028-0.966-19.501
					c-0.188-2.716,1.864-5.071,4.583-5.259c2.705-0.058,5.072,1.869,5.257,4.585c0.453,6.593,0.785,13.283,0.985,19.877
					c0.082,2.721-2.056,4.994-4.78,5.081C1596.785,951.956,1596.734,951.956,1596.684,951.956z"/>
			</g>
			<g>
				<path style="fill:#EAC4F9;" d="M1450.813,1328.973c-1.238,0-2.478-0.462-3.437-1.392c-1.953-1.898-1.998-5.023-0.101-6.974
					c4.547-4.682,9.033-9.483,13.336-14.276c1.818-2.013,4.939-2.182,6.964-0.371c2.026,1.821,2.192,4.942,0.371,6.969
					c-4.387,4.879-8.961,9.772-13.596,14.545C1453.385,1328.472,1452.099,1328.973,1450.813,1328.973z"/>
				<path style="fill:#EAC4F9;" d="M1079.18,1486.449l-4.467-0.019c-2.724-0.029-4.91-2.259-4.884-4.98
					c0.027-2.707,2.23-4.884,4.932-4.884c0.015,0,0.032,0,0.048,0l4.37,0.019c11.648,0,23.465-0.404,35.122-1.204
					c2.731-0.058,5.071,1.869,5.257,4.585c0.185,2.716-1.866,5.071-4.583,5.259
					C1103.094,1486.034,1091.052,1486.449,1079.18,1486.449z M1010.14,1481.839c-0.219,0-0.441-0.014-0.662-0.043
					c-13.239-1.777-26.588-4.089-39.676-6.872c-2.663-0.568-4.364-3.188-3.795-5.852c0.568-2.668,3.176-4.339,5.852-3.8
					c12.84,2.735,25.94,5.009,38.93,6.747c2.699,0.362,4.595,2.847,4.233,5.543
					C1014.689,1480.038,1012.572,1481.839,1010.14,1481.839z M1178.873,1476.749c-2.31,0-4.371-1.628-4.833-3.978
					c-0.527-2.673,1.214-5.269,3.887-5.794c12.886-2.533,25.819-5.606,38.443-9.122c2.618-0.747,5.341,0.799,6.075,3.424
					c0.732,2.625-0.802,5.341-3.427,6.073c-12.867,3.588-26.051,6.719-39.19,9.305
					C1179.509,1476.72,1179.188,1476.749,1178.873,1476.749z M908.416,1457.633c-0.537,0-1.083-0.086-1.618-0.274
					c-12.657-4.393-25.273-9.325-37.501-14.656c-2.495-1.088-3.636-3.998-2.548-6.492c1.084-2.5,3.988-3.646,6.49-2.553
					c11.997,5.23,24.377,10.071,36.796,14.386c2.572,0.891,3.935,3.704,3.042,6.276
					C912.368,1456.357,910.458,1457.633,908.416,1457.633z M1278.901,1446.233c-1.926,0-3.757-1.137-4.549-3.025
					c-1.054-2.509,0.125-5.399,2.637-6.454c12.045-5.057,24.093-10.672,35.813-16.698c2.418-1.247,5.399-0.289,6.642,2.133
					c1.245,2.422,0.289,5.394-2.134,6.642c-11.944,6.136-24.225,11.863-36.502,17.016
					C1280.184,1446.113,1279.536,1446.233,1278.901,1446.233z M813.602,1413.574c-0.857,0-1.724-0.221-2.514-0.693
					c-11.48-6.82-22.846-14.184-33.786-21.885c-2.228-1.565-2.762-4.643-1.195-6.868c1.57-2.234,4.643-2.764,6.872-1.194
					c10.733,7.552,21.885,14.776,33.145,21.471c2.343,1.392,3.112,4.416,1.722,6.757
					C816.925,1412.712,815.285,1413.574,813.602,1413.574z M1370.76,1396.241c-1.577,0-3.126-0.752-4.079-2.153
					c-1.534-2.249-0.953-5.322,1.296-6.854c10.844-7.393,21.538-15.296,31.782-23.484c2.131-1.7,5.228-1.353,6.933,0.775
					c1.7,2.124,1.353,5.231-0.773,6.931c-10.439,8.342-21.336,16.394-32.384,23.927
					C1372.684,1395.961,1371.716,1396.241,1370.76,1396.241z M729.622,1351.339c-1.185,0-2.377-0.424-3.321-1.291
					c-9.852-8.982-19.498-18.494-28.674-28.267c-1.864-1.984-1.765-5.105,0.219-6.969c1.982-1.864,5.105-1.777,6.972,0.217
					c9.002,9.589,18.468,18.918,28.129,27.736c2.013,1.835,2.155,4.951,0.321,6.964
					C732.295,1350.8,730.961,1351.339,729.622,1351.339z M659.927,1273.418c-1.524,0-3.027-0.703-3.993-2.032
					c-6.184-8.501-12.209-17.324-17.904-26.229c-1.534-2.398-3.046-4.807-4.534-7.215c-1.43-2.321-0.71-5.36,1.609-6.786
					c2.314-1.436,5.353-0.708,6.786,1.604c1.459,2.369,2.943,4.729,4.448,7.08c5.592,8.742,11.503,17.401,17.572,25.748
					c1.604,2.201,1.115,5.283-1.086,6.887C661.947,1273.11,660.931,1273.418,659.927,1273.418z M607.131,1183.148
					c-1.871,0-3.658-1.069-4.489-2.88c-5.56-12.161-10.716-24.693-15.323-37.248c-0.937-2.558,0.376-5.394,2.933-6.328
					c2.55-0.949,5.387,0.375,6.328,2.928c4.518,12.32,9.577,24.616,15.034,36.546c1.132,2.475,0.041,5.404-2.435,6.536
					C608.516,1183.003,607.818,1183.148,607.131,1183.148z M573.504,1084.131c-2.246,0-4.279-1.546-4.802-3.828
					c-2.989-13.023-5.505-26.34-7.479-39.58c-0.4-2.692,1.457-5.202,4.152-5.606c2.659-0.4,5.204,1.454,5.606,4.152
					c1.936,12.989,4.405,26.056,7.335,38.828c0.61,2.654-1.05,5.303-3.704,5.909
					C574.241,1084.093,573.871,1084.131,573.504,1084.131z"/>
				<path style="fill:#EAC4F9;" d="M560.58,980.169c-2.673,0-4.869-2.138-4.927-4.821c-0.147-6.569-0.169-13.264-0.065-19.905
					c0.043-2.726,2.302-4.792,5.009-4.855c2.724,0.043,4.898,2.288,4.855,5.009c-0.104,6.516-0.082,13.086,0.06,19.53
					c0.063,2.726-2.095,4.98-4.818,5.043C560.655,980.169,560.618,980.169,560.58,980.169z"/>
			</g>
			<g>
				
					<linearGradient id="SVGID_00000150068036452640147790000006748047335567505817_" gradientUnits="userSpaceOnUse" x1="1106.2216" y1="1282.1172" x2="1907.9779" y2="1282.1172" gradientTransform="matrix(0.3674 0.93 -0.93 0.3674 1720.8397 -911.5253)">
					<stop  offset="0" style="stop-color:#B37CFF"/>
					<stop  offset="1" style="stop-color:#F895E7"/>
				</linearGradient>
				<path style="fill:url(#SVGID_00000150068036452640147790000006748047335567505817_);" d="M684.593,907.195
					c-0.652,2.571,0.4,5.275,2.618,6.729l63.305,41.499c-0.642,35.344,4.348,71.045,15.345,105.721l-48.822,57.781
					c-1.713,2.026-1.95,4.917-0.593,7.196l46.461,78.007c1.359,2.28,4.014,3.446,6.61,2.907l74.06-15.407
					c25.254,26.184,54.266,47.576,85.65,63.845l6.339,75.429c0.223,2.643,2.097,4.855,4.669,5.507l88.012,22.306
					c2.573,0.652,5.276-0.4,6.729-2.619l41.5-63.303c35.343,0.641,71.044-4.349,105.72-15.346l57.782,48.822
					c2.026,1.712,4.916,1.95,7.196,0.593l78.007-46.462c2.279-1.358,3.447-4.012,2.906-6.61l-15.408-74.06
					c26.186-25.253,47.577-54.266,63.846-85.65l75.43-6.338c2.642-0.222,4.855-2.098,5.506-4.669l22.306-88.011
					c0.653-2.573-0.4-5.275-2.619-6.729l-63.304-41.5c0.643-35.343-4.348-71.044-15.345-105.721l48.823-57.782
					c1.711-2.026,1.95-4.916,0.593-7.195l-46.462-78.008c-1.357-2.279-4.013-3.447-6.61-2.906l-74.06,15.408
					c-25.253-26.186-54.267-47.577-85.651-63.847l-6.339-75.427c-0.22-2.644-2.098-4.857-4.669-5.508l-88.011-22.305
					c-2.571-0.651-5.275,0.399-6.729,2.618l-41.499,63.303c-35.344-0.642-71.044,4.349-105.72,15.346l-57.783-48.823
					c-2.024-1.712-4.915-1.95-7.195-0.591l-78.006,46.461c-2.279,1.357-3.446,4.011-2.907,6.61l15.408,74.06
					c-26.185,25.253-47.576,54.267-63.846,85.649l-75.428,6.34c-2.644,0.222-4.855,2.097-5.508,4.669L684.593,907.195z"/>
				<path style="fill:#FFFFFF;" d="M1082.18,1049.146c-0.029,0-0.055,0-0.084,0c-23.51-0.024-45.604-9.199-62.213-25.839
					c-16.609-16.64-25.745-38.751-25.721-62.259c0.022-23.513,9.199-45.609,25.839-62.216
					c34.349-34.292,90.193-34.234,124.475,0.115c16.608,16.64,25.745,38.751,25.721,62.259c-0.022,23.513-9.199,45.61-25.839,62.216
					C1127.739,1040.01,1105.66,1049.146,1082.18,1049.146z M1082.178,887.904c-19.534,0-37.898,7.6-51.726,21.398
					c-13.845,13.818-21.478,32.196-21.495,51.755c-0.019,19.558,7.581,37.956,21.396,51.798
					c13.818,13.842,32.199,21.476,51.758,21.495c0.022,0,0.048,0,0.069,0c19.535,0,37.899-7.6,51.726-21.398
					c13.844-13.818,21.478-32.196,21.495-51.755c0.019-19.559-7.581-37.957-21.396-51.799
					c-13.817-13.842-32.199-21.475-51.757-21.495C1082.226,887.904,1082.199,887.904,1082.178,887.904z"/>
				<path style="fill:#FFFFFF;" d="M1084.458,1187.877c-77.257,0.005-152.633-39.478-194.957-110.537
					c-8.267-13.88-15.053-28.618-20.163-43.799l14.02-4.72c4.78,14.188,11.123,27.968,18.853,40.947
					c46.927,78.784,137.349,116.056,222.567,99.426c0.159-0.029,0.318-0.063,0.477-0.092c0.166-0.034,0.323-0.063,0.489-0.096
					c22.928-4.58,45.46-13.066,66.664-25.695c48.579-28.931,82.983-75.051,96.876-129.859c4.402-17.372,6.577-34.956,6.574-52.42
					c-0.007-37.643-10.138-74.729-29.901-107.912c-59.733-100.283-189.913-133.279-290.196-73.548
					c-32.974,19.64-59.959,47.787-78.034,81.394l-13.028-7.012c19.342-35.963,48.215-66.079,83.491-87.096
					c107.288-63.892,246.573-28.603,310.477,78.692c21.148,35.505,31.984,75.181,31.992,115.454
					c0.002,18.687-2.324,37.499-7.034,56.08c-14.861,58.642-51.671,107.989-103.645,138.943
					C1163.745,1177.609,1123.852,1187.877,1084.458,1187.877z"/>
			</g>
		</g>
		<g>
			
				<linearGradient id="SVGID_00000147185046986499577130000003450149017087828368_" gradientUnits="userSpaceOnUse" x1="1901.8027" y1="3172.4504" x2="1872.1577" y2="2585.4868">
				<stop  offset="0" style="stop-color:#2B3582"/>
				<stop  offset="1" style="stop-color:#150E42"/>
			</linearGradient>
			<polygon style="fill:url(#SVGID_00000147185046986499577130000003450149017087828368_);" points="1654.07,2506.092 
				1604.833,2947.67 2176.067,2947.67 2101.663,2506.092 			"/>
			
				<linearGradient id="SVGID_00000178183830600188783710000006459800599998315454_" gradientUnits="userSpaceOnUse" x1="455.822" y1="1847.9948" x2="3194.6694" y2="1847.9948">
				<stop  offset="0" style="stop-color:#2B3582"/>
				<stop  offset="1" style="stop-color:#150E42"/>
			</linearGradient>
			<path style="fill:url(#SVGID_00000178183830600188783710000006459800599998315454_);" d="M455.822,1199.303v1214.751
				c0,99.93,79.632,181.648,179.528,184.224c443.687,11.441,1995.488,39.183,2417.848,32.957
				c72.593-1.07,131.399-59.161,133.494-131.731c8.144-282.203,21.371-960.808-27.578-1275.857
				c-10.309-66.346-66.311-115.958-133.418-118.105c-371.753-11.893-2016.765-49.656-2438.927-40.175
				C513.96,1067.002,455.822,1126.476,455.822,1199.303z"/>
			
				<linearGradient id="SVGID_00000148651088166402079560000011833748700710705797_" gradientUnits="userSpaceOnUse" x1="3380.8801" y1="1010.1287" x2="-2560.2822" y2="3980.7161">
				<stop  offset="0" style="stop-color:#FDF53F"/>
				<stop  offset="1" style="stop-color:#D93C65"/>
			</linearGradient>
			<path style="fill:url(#SVGID_00000148651088166402079560000011833748700710705797_);" d="M532.044,1193.39v1154.098
				c0,58.344,46.835,105.884,105.173,106.757l2355.218,29.098c57.838,0.865,105.247-45.668,105.462-103.512l3.94-1143.786
				c0.155-41.359-32.797-75.248-74.144-76.254l-2411.307-48.715C570.141,1109.949,532.044,1147.131,532.044,1193.39z"/>
			<path style="opacity:0.65;fill:#FFFFFF;" d="M3115.629,2530.75c-0.02,0-0.04,0-0.059,0l-2583.582-44.022
				c-1.864-0.033-3.348-1.569-3.317-3.432c0.031-1.864,1.532-3.281,3.432-3.317L3115.685,2524c1.864,0.033,3.348,1.569,3.317,3.432
				C3118.97,2529.277,3117.464,2530.75,3115.629,2530.75z"/>
			<path style="opacity:0.65;fill:#FFFFFF;" d="M1849.323,2584.513c-16.684,0-30.256-13.573-30.256-30.256
				c0-16.684,13.573-30.256,30.256-30.256c16.684,0,30.256,13.573,30.256,30.256
				C1879.579,2570.94,1866.006,2584.513,1849.323,2584.513z M1849.323,2530.75c-12.961,0-23.507,10.546-23.507,23.507
				c0,12.961,10.546,23.507,23.507,23.507c12.961,0,23.507-10.546,23.507-23.507
				C1872.83,2541.295,1862.284,2530.75,1849.323,2530.75z"/>
			
				<linearGradient id="SVGID_00000155140070581736603650000007328639396529834398_" gradientUnits="userSpaceOnUse" x1="1903.6478" y1="2950.9658" x2="1630.9166" y2="3549.7881">
				<stop  offset="0" style="stop-color:#2B3582"/>
				<stop  offset="1" style="stop-color:#150E42"/>
			</linearGradient>
			<path style="fill:url(#SVGID_00000155140070581736603650000007328639396529834398_);" d="M2299.111,3038.017h-836.04
				c-22.713,0-39.769-16.169-35.377-33.537l10.727-42.427c3.226-12.759,17.263-22.126,33.935-22.646l805.973-25.15
				c17.418-0.543,32.84,8.702,36.635,21.963l19.339,67.576C2339.328,3021.353,2322.19,3038.017,2299.111,3038.017z"/>
			<path style="fill:#FFFFFF;" d="M1913.124,2951.551c-1.84,0-3.345-1.478-3.373-3.325c-0.026-1.864,1.462-3.396,3.325-3.424
				l34.539-0.506c1.781-0.02,3.396,1.46,3.424,3.325c0.026,1.864-1.462,3.396-3.325,3.424l-34.539,0.506
				C1913.159,2951.551,1913.143,2951.551,1913.124,2951.551z"/>
			<path style="fill:#FFFFFF;" d="M1458.648,3015.276c-0.178,0-0.356-0.013-0.537-0.043c-1.84-0.293-3.094-2.023-2.799-3.864
				l4.927-30.858c2.696-16.895,17.069-29.339,34.178-29.589l366.316-5.357c1.814,0.061,3.396,1.461,3.424,3.325
				c0.026,1.864-1.462,3.396-3.325,3.424l-366.316,5.357c-13.822,0.201-25.435,10.256-27.613,23.904l-4.927,30.858
				C1461.711,3014.093,1460.276,3015.276,1458.648,3015.276z"/>
			<path style="opacity:0.37;fill:#FFFFFF;" d="M2927.891,1213.034L677.12,1185.323c-35.467-0.436-64.313,28.583-64.819,64.869
				l-14.465,1048.19c-0.499,35.822,27.167,65.472,62.162,66.71l2263.537,80.091c31.488,1.115,60.995-10.905,83.656-33.302
				c22.661-22.397,34.385-53.251,34.385-85.487v-994.51C3041.576,1266.798,2991.502,1213.817,2927.891,1213.034z"/>
		</g>
		<g>
			<g>
				
					<linearGradient id="SVGID_00000067219909179287300940000005016770016861709755_" gradientUnits="userSpaceOnUse" x1="1900.8093" y1="633.0636" x2="554.7465" y2="2923.2856">
					<stop  offset="0" style="stop-color:#53D8FF"/>
					<stop  offset="1" style="stop-color:#3840F7"/>
				</linearGradient>
				<path style="fill:url(#SVGID_00000067219909179287300940000005016770016861709755_);" d="M659.71,1156.031h1150.63
					c31.373,0,56.646,31.744,56.077,70.438l-16.188,1101.124c-0.762,51.823-35.314,93.157-77.331,92.506l-1114.427-17.251
					c-30.712-0.475-55.401-31.333-55.383-69.219l0.535-1108.456C603.643,1186.98,628.748,1156.031,659.71,1156.031z"/>
				<path style="opacity:0.25;fill:#FFFFFF;" d="M677.91,1188.502h1104.875c30.126,0,54.393,30.425,53.847,67.509l-15.545,1055.341
					c-0.732,49.669-33.91,89.284-74.256,88.66L676.72,2383.479c-29.49-0.456-53.198-30.03-53.18-66.341l0.514-1062.368
					C624.072,1218.164,648.179,1188.502,677.91,1188.502z"/>
			</g>
			<g>
				<path style="fill:#FFFFFF;" d="M1438.587,1315.686c-0.112,0-0.226,0-0.339-0.002l-729.657-8.137
					c-19.874-0.222-36.045-15.937-36.048-35.028l-0.005-28.61c-0.002-7.524,3.055-14.583,8.603-19.879
					c5.485-5.235,12.76-8.119,20.487-8.119h741.906c7.855,0,15.359,3.238,20.586,8.885c5.014,5.416,7.469,12.386,6.911,19.627
					l-3.503,45.404C1466.401,1304.389,1453.721,1315.686,1438.587,1315.686z M701.627,1226.036c-5.111,0-9.903,1.888-13.497,5.317
					c-3.528,3.366-5.469,7.825-5.469,12.554l0.005,28.609c0.003,13.574,11.683,24.748,26.036,24.908l729.657,8.137
					c0.076,0.002,0.153,0.002,0.227,0.002c9.872,0,18.127-7.214,18.846-16.514l3.503-45.403c0.339-4.396-1.168-8.648-4.245-11.971
					c-3.319-3.584-8.114-5.639-13.157-5.639H701.627z"/>
				<path style="opacity:0.85;fill:#FFFFFF;" d="M1429.682,1300.343l-707.827-5.96c-16.686-0.141-30.111-9.926-30.114-21.949
					l-0.005-20.954c-0.002-9.277,10.434-16.798,23.309-16.798h719.71c12.692,0,22.71,7.769,21.778,16.89l-3.399,33.255
					C1452.233,1293.651,1441.96,1300.447,1429.682,1300.343z"/>
				<path style="opacity:0.59;fill:#FFFFFF;" d="M1672.042,1423.165H677.874c-6.596,0-11.943-5.894-11.943-13.165v-35.215
					c0-7.316,5.411-13.229,12.048-13.165l994.169,9.69c6.554,0.064,11.837,5.939,11.837,13.164V1410
					C1683.985,1417.27,1678.638,1423.165,1672.042,1423.165z"/>
				<path style="opacity:0.4;fill:#FFFFFF;" d="M1750.726,1662.961l-1046.967-13.965c-18.615-0.248-33.576-15.41-33.576-34.027
					v-143.751c0-19.146,15.63-34.61,34.775-34.405l1043.924,11.164c20.589,0.22,37.164,16.973,37.164,37.563v142.568
					C1786.046,1647.541,1770.156,1663.22,1750.726,1662.961z"/>
				<path style="opacity:0.59;fill:#FFFFFF;" d="M1581.681,1769.991H676.389c-6.006,0-10.875-5.894-10.875-13.165v-35.215
					c0-7.316,4.928-13.229,10.971-13.165l905.292,9.69c5.968,0.064,10.779,5.939,10.779,13.164v25.525
					C1592.556,1764.097,1587.687,1769.991,1581.681,1769.991z"/>
				<path style="opacity:0.4;fill:#FFFFFF;" d="M1750.309,2031.273l-1046.967-15.292c-18.615-0.272-33.576-16.873-33.576-37.259
					v-157.408c0-20.965,15.63-37.898,34.775-37.674l1043.924,12.225c20.589,0.241,37.164,18.586,37.164,41.132v156.113
					C1785.629,2014.387,1769.739,2031.556,1750.309,2031.273z"/>
				<path style="opacity:0.59;fill:#FFFFFF;" d="M1777.129,2144.213H680.81c-7.273,0-13.17-5.894-13.17-13.165v-35.215
					c0-7.316,5.968-13.229,13.286-13.165l1096.319,9.69c7.228,0.064,13.053,5.939,13.053,13.164v25.525
					C1790.298,2138.319,1784.402,2144.213,1777.129,2144.213z"/>
				<path style="opacity:0.4;fill:#FFFFFF;" d="M1752.435,2373.049l-1046.967-13.288c-18.615-0.236-33.576-14.663-33.576-32.377
					V2190.6c0-18.218,15.63-32.932,34.775-32.737l1043.924,10.623c20.589,0.209,37.164,16.15,37.164,35.742v135.658
					C1787.755,2358.376,1771.865,2373.295,1752.435,2373.049z"/>
			</g>
		</g>
		<g>
			<g>
				
					<linearGradient id="SVGID_00000061462772202954295910000000472184576246810793_" gradientUnits="userSpaceOnUse" x1="2987.2847" y1="566.556" x2="2100.2051" y2="2693.4521">
					<stop  offset="0" style="stop-color:#53D8FF"/>
					<stop  offset="1" style="stop-color:#3840F7"/>
				</linearGradient>
				<path style="fill:url(#SVGID_00000061462772202954295910000000472184576246810793_);" d="M2053.341,858.201h1127.661
					c30.747,0,55.515,31.382,54.958,69.633l-15.865,1088.546c-0.747,51.232-34.61,92.093-103.918,91.45l-1049.795-16.392
					c-36.477-0.57-67.036-29.147-68.464-65.6c-0.045-1.156-0.068-2.32-0.068-3.49l0.525-1095.794
					C1998.392,888.796,2022.996,858.201,2053.341,858.201z"/>
				
					<linearGradient id="SVGID_00000055691578222438165800000008542931750464670653_" gradientUnits="userSpaceOnUse" x1="2658.55" y1="934.9302" x2="2501.1162" y2="2745.4333">
					<stop  offset="0" style="stop-color:#53D8FF"/>
					<stop  offset="0.4242" style="stop-color:#4898FC"/>
					<stop  offset="0.8017" style="stop-color:#3E5EF9"/>
					<stop  offset="1" style="stop-color:#3840F7"/>
				</linearGradient>
				<path style="fill:url(#SVGID_00000055691578222438165800000008542931750464670653_);" d="M2078.21,887.679h1082.82
					c29.524,0,53.308,29.817,52.772,66.162l-15.234,1034.275c-0.717,48.677-33.233,87.501-72.774,86.89l-1048.75-16.203
					c-28.902-0.447-52.136-29.431-52.119-65.017l0.504-1041.162C2025.446,916.749,2049.072,887.679,2078.21,887.679z"/>
			</g>
			<g>
				
					<linearGradient id="SVGID_00000155837695778593458350000011678832910007788937_" gradientUnits="userSpaceOnUse" x1="2754.1833" y1="340.2455" x2="2464.7864" y2="1765.5293">
					<stop  offset="0" style="stop-color:#53D8FF"/>
					<stop  offset="1" style="stop-color:#3840F7"/>
				</linearGradient>
				<path style="fill:url(#SVGID_00000155837695778593458350000011678832910007788937_);" d="M3120.938,1096.832H2100.949
					c-3.597,0-6.513-2.916-6.513-6.513v-85.171c0-3.774,3.059-6.833,6.833-6.833h1018.514c3.682,0,6.667,2.985,6.667,6.667v86.337
					C3126.45,1094.364,3123.982,1096.832,3120.938,1096.832z"/>
				<path style="opacity:0.27;fill:#FFFFFF;" d="M3042.897,1066.855h-378.24c-6.236,2.344-11.291-3.253-11.291-10.158v-18.53
					c0-6.905,5.055-12.503,11.291-12.503h378.24c6.236,0,11.291,5.598,11.291,12.503v18.53
					C3054.188,1063.602,3049.133,1069.2,3042.897,1066.855z"/>
				
					<linearGradient id="SVGID_00000166655725325679940000000010631757297658074010_" gradientUnits="userSpaceOnUse" x1="2545.2925" y1="740.2633" x2="2452.2632" y2="1556.0618">
					<stop  offset="0" style="stop-color:#53D8FF"/>
					<stop  offset="1" style="stop-color:#3840F7"/>
				</linearGradient>
				<path style="fill:url(#SVGID_00000166655725325679940000000010631757297658074010_);" d="M2836.176,1586.454
					c0,25.938-20.999,46.981-46.937,47.034l-658.716,1.357c-17.216,0-31.173-14.276-31.173-31.885v-349.949
					c0-17.804,14.254-32.158,31.658-31.882l674.481,10.729c17.025,0.271,30.688,14.465,30.688,31.882V1586.454z"/>
				<path style="opacity:0.27;fill:#FFFFFF;" d="M2751.852,2017.237l-281.842-2.342c-9.524-0.079-17.18-7.864-17.101-17.388
					l2.346-282.281c0.078-9.35,7.594-16.935,16.943-17.099l278.317,5.28c11.787,0.224,21.197,9.896,21.095,21.685l-2.37,275.044
					C2769.161,2009.66,2761.376,2017.316,2751.852,2017.237z"/>
				<path style="opacity:0.27;fill:#FFFFFF;" d="M2393.38,2017.237l-281.842-2.342c-9.524-0.079-17.18-7.864-17.101-17.388
					l2.346-282.281c0.078-9.35,7.593-16.935,16.943-17.099l278.317,5.28c11.787,0.224,21.197,9.896,21.095,21.685l-2.37,275.044
					C2410.688,2009.66,2402.904,2017.316,2393.38,2017.237z"/>
				<path style="opacity:0.27;fill:#FFFFFF;" d="M3106.692,2023.913l-281.842-2.342c-9.524-0.079-17.18-7.864-17.101-17.388
					l2.346-282.281c0.078-9.351,7.593-16.935,16.943-17.099l278.317,5.28c11.787,0.224,21.197,9.896,21.095,21.685l-2.37,275.044
					C3124,2016.336,3116.216,2023.993,3106.692,2023.913z"/>
				<path style="opacity:0.27;fill:#FFFFFF;" d="M3102.756,1650.58H2898.98c-13.086,0-23.695-10.679-23.695-23.853v-372.326
					c0-11.067,8.603-20.056,19.253-20.116l209.251-1.179c12.672,0.557,22.661,11.061,22.661,23.83v369.79
					C3126.45,1639.9,3115.842,1650.58,3102.756,1650.58z"/>
				<g>
					<path style="fill:#FFFFFF;" d="M2331.106,977.066c-18.272,0-33.137-14.866-33.137-33.138s14.865-33.137,33.137-33.137
						c18.272,0,33.138,14.865,33.138,33.137S2349.378,977.066,2331.106,977.066z M2331.106,917.541
						c-14.55,0-26.387,11.838-26.387,26.387c0,14.552,11.838,26.389,26.387,26.389c14.551,0,26.389-11.838,26.389-26.389
						C2357.495,929.378,2345.657,917.541,2331.106,917.541z"/>
					<path style="fill:#FFFFFF;" d="M2228.096,979.479c-18.272,0-33.138-14.865-33.138-33.137s14.866-33.137,33.138-33.137
						c18.272,0,33.136,14.865,33.136,33.137S2246.368,979.479,2228.096,979.479z M2228.096,919.955
						c-14.552,0-26.389,11.838-26.389,26.387s11.838,26.387,26.389,26.387c14.55,0,26.387-11.838,26.387-26.387
						S2242.646,919.955,2228.096,919.955z"/>
					<path style="fill:#FFFFFF;" d="M2129.111,979.479c-18.272,0-33.137-14.865-33.137-33.137s14.865-33.137,33.137-33.137
						c18.272,0,33.138,14.865,33.138,33.137S2147.383,979.479,2129.111,979.479z M2129.111,919.955
						c-14.55,0-26.387,11.838-26.387,26.387s11.837,26.387,26.387,26.387c14.551,0,26.389-11.838,26.389-26.387
						S2143.662,919.955,2129.111,919.955z"/>
				</g>
			</g>
			<g>
				<path style="fill:#FFFFFF;" d="M2483.085,1497.273c-43.844,0-79.445-35.601-79.445-79.36c0-43.844,35.601-79.446,79.36-79.446
					c43.844,0,79.446,35.602,79.446,79.361v0.085C2562.446,1461.672,2526.844,1497.273,2483.085,1497.273z M2483.085,1343.155
					c-41.259,0-74.757,33.498-74.757,74.673c0,41.259,33.498,74.756,74.672,74.756c41.26,0,74.757-33.498,74.757-74.672v-0.085
					C2557.757,1376.653,2524.26,1343.155,2483.085,1343.155z"/>
				<path style="fill:#FFFFFF;" d="M2461.151,1457.751c-2.219,0-4.047-1.768-4.107-4l-1.878-70.101
					c-0.061-2.312,1.057-4.447,2.989-5.714c1.933-1.267,4.336-1.441,6.432-0.461l69.247,32.389c2.285,1.068,3.746,3.299,3.813,5.821
					c0.066,2.522-1.275,4.827-3.502,6.015l-61.126,32.587c-2.006,1.068-4.493,0.308-5.56-1.693c-1.069-2.003-0.31-4.493,1.693-5.56
					l58.299-31.08l-63.998-29.932l1.808,67.509c0.06,2.27-1.73,4.158-3.999,4.22
					C2461.225,1457.751,2461.188,1457.751,2461.151,1457.751z"/>
			</g>
		</g>
		<g>
			
				<linearGradient id="SVGID_00000071556232762124955270000004209761599176697527_" gradientUnits="userSpaceOnUse" x1="1894.9611" y1="481.9518" x2="1726.168" y2="1705.7046" gradientTransform="matrix(0.9854 0.1705 -0.1705 0.9854 66.439 -38.0066)">
				<stop  offset="0" style="stop-color:#CB236D"/>
				<stop  offset="1" style="stop-color:#4C246D"/>
			</linearGradient>
			<path style="fill:url(#SVGID_00000071556232762124955270000004209761599176697527_);" d="M1582.373,902.894
				c107.286-163.794,327.261-223.471,463.386-198.635l27.312,63.707c-138.843,22.253-236.461,47.328-309.297,167.892
				c-3.949,6.537-11.483,10.02-19.01,8.73l-155.827-26.721C1582.013,916.68,1578.524,908.771,1582.373,902.894z"/>
			
				<linearGradient id="SVGID_00000111185651755169023500000009229449701719938722_" gradientUnits="userSpaceOnUse" x1="2105.9832" y1="511.059" x2="1937.1897" y2="1734.8132" gradientTransform="matrix(0.9854 0.1705 -0.1705 0.9854 66.439 -38.0066)">
				<stop  offset="0" style="stop-color:#CB236D"/>
				<stop  offset="1" style="stop-color:#4C246D"/>
			</linearGradient>
			<path style="fill:url(#SVGID_00000111185651755169023500000009229449701719938722_);" d="M2012.917,612.541l187.243,83.112
				c12.848,5.703,13.587,23.661,1.25,30.399l-164.068,89.619c-5.235,2.333-11.24-1.027-11.992-6.708l-25.06-189.488
				C1999.367,612.487,2007.515,608.012,2012.917,612.541z"/>
		</g>
		<g>
			<g>
				
					<linearGradient id="SVGID_00000073695887810298397960000001151829267433131911_" gradientUnits="userSpaceOnUse" x1="12527.208" y1="3138.2427" x2="12598.9932" y2="2686.6902" gradientTransform="matrix(-1 0 0 1 13675.626 0)">
					<stop  offset="0" style="stop-color:#CB236D"/>
					<stop  offset="1" style="stop-color:#4C246D"/>
				</linearGradient>
				
					<rect x="1105.885" y="2795.564" style="fill:url(#SVGID_00000073695887810298397960000001151829267433131911_);" width="33.213" height="359.179"/>
				
					<linearGradient id="SVGID_00000032627519816859345050000014432243027698037900_" gradientUnits="userSpaceOnUse" x1="12555.1279" y1="3141.2695" x2="12629.3018" y2="2674.6914" gradientTransform="matrix(-1 0 0 1 13675.626 0)">
					<stop  offset="0" style="stop-color:#CB236D"/>
					<stop  offset="1" style="stop-color:#4C246D"/>
				</linearGradient>
				<path style="fill:url(#SVGID_00000032627519816859345050000014432243027698037900_);" d="M977.042,3161.667h290.898v-15.216
					c0-3.536-2.867-6.403-6.403-6.403H983.944c-3.812,0-6.902,3.09-6.902,6.902V3161.667z"/>
				
					<linearGradient id="SVGID_00000114062285666508867460000016749159295508583328_" gradientUnits="userSpaceOnUse" x1="12497.2285" y1="3155.2432" x2="12573.5195" y2="2675.3501" gradientTransform="matrix(-1 0 0 1 13675.626 0)">
					<stop  offset="0" style="stop-color:#FDF53F"/>
					<stop  offset="1" style="stop-color:#D93C65"/>
				</linearGradient>
				<path style="fill:url(#SVGID_00000114062285666508867460000016749159295508583328_);" d="M922.032,2782.315
					c0,20.878,17.082,37.959,37.959,37.959h312.784c20.877,0,37.959-17.082,37.959-37.959v-34.322
					c0-20.877-17.082-37.959-37.959-37.959H959.991c-20.878,0-37.959,17.082-37.959,37.959V2782.315z"/>
			</g>
			<g>
				
					<linearGradient id="SVGID_00000022560700093833696430000012948685017471894671_" gradientUnits="userSpaceOnUse" x1="1388.319" y1="3022.2073" x2="1329.6884" y2="3137.5139">
					<stop  offset="0" style="stop-color:#2B3582"/>
					<stop  offset="1" style="stop-color:#150E42"/>
				</linearGradient>
				<path style="fill:url(#SVGID_00000022560700093833696430000012948685017471894671_);" d="M1307.482,3091.111
					c0,0,94.841,68.361,78.373,114.288c0,0-103.769-44.772-116.305-80.039c-12.537-35.267,2.121-50.844,2.121-50.844
					L1307.482,3091.111z"/>
				
					<linearGradient id="SVGID_00000033329014330549817360000006887809567436868790_" gradientUnits="userSpaceOnUse" x1="1276.8287" y1="3068.0945" x2="1335.2354" y2="3068.0945">
					<stop  offset="0" style="stop-color:#F9B776"/>
					<stop  offset="1" style="stop-color:#F47960"/>
				</linearGradient>
				<path style="fill:url(#SVGID_00000033329014330549817360000006887809567436868790_);" d="M1293.23,3033.819l-15.508,44.832
					c-2.34,6.766,0,14.47,6.052,18.293c3.031,1.915,7.173,3.686,12.834,4.969c7.989,1.811,16.236-1.879,20.078-9.114l18.55-34.931
					L1293.23,3033.819z"/>
				
					<linearGradient id="SVGID_00000009583208942100943330000011396174551038483104_" gradientUnits="userSpaceOnUse" x1="1196.0045" y1="2913.554" x2="1444.2062" y2="2565.6804">
					<stop  offset="0" style="stop-color:#2B3582"/>
					<stop  offset="0.2305" style="stop-color:#252A70"/>
					<stop  offset="0.7285" style="stop-color:#19164F"/>
					<stop  offset="1" style="stop-color:#150E42"/>
				</linearGradient>
				<path style="fill:url(#SVGID_00000009583208942100943330000011396174551038483104_);" d="M1142.313,2630.291
					c0,0,194.8,33.761,278.362,110.954c83.562,77.193-76.698,323.429-76.698,323.429s-26.257-0.162-58.077-27.436
					c0,0,95.022-185.191,13.131-239.196c-92.067-60.716-198.168-74.39-198.168-74.39l39.567-87.409L1142.313,2630.291z"/>
				
					<linearGradient id="SVGID_00000106839814841056748140000008257497140754796960_" gradientUnits="userSpaceOnUse" x1="1354.2935" y1="3138.7903" x2="1151.0409" y2="3404.5818">
					<stop  offset="0" style="stop-color:#2B3582"/>
					<stop  offset="1" style="stop-color:#150E42"/>
				</linearGradient>
				<path style="fill:url(#SVGID_00000106839814841056748140000008257497140754796960_);" d="M1369.376,3179.999
					c-20.86-9.657-79.917-50.991-89.871-52.815c-9.955-1.824-27.222,9.875-27.222,9.875s-4.199,7.554,0.292,20.729
					c13.862,16.772,44.639,48.745,86.014,60.659c30.436,8.764,51.723,0.594,64.982-8.966
					C1396.277,3198.37,1383.268,3186.43,1369.376,3179.999z"/>
				
					<linearGradient id="SVGID_00000072269180868456735770000004921364864966336663_" gradientUnits="userSpaceOnUse" x1="1252.5751" y1="3196.355" x2="1409.6279" y2="3196.355">
					<stop  offset="0" style="stop-color:#53D8FF"/>
					<stop  offset="1" style="stop-color:#3840F7"/>
				</linearGradient>
				<path style="fill:url(#SVGID_00000072269180868456735770000004921364864966336663_);" d="M1338.589,3218.446
					c-41.375-11.914-72.152-43.887-86.014-60.659c3.036,8.902,10.035,20.369,24.994,33.815
					c37.096,33.341,107.947,45.36,123.032,43.044c12.089-1.856,10.949-13.014,2.97-25.166
					C1390.313,3219.041,1369.025,3227.21,1338.589,3218.446z"/>
				
					<linearGradient id="SVGID_00000015349908155204316510000000283833867730237616_" gradientUnits="userSpaceOnUse" x1="1234.5938" y1="3121.9946" x2="1289.4098" y2="3121.9946">
					<stop  offset="0" style="stop-color:#F9B776"/>
					<stop  offset="1" style="stop-color:#F47960"/>
				</linearGradient>
				<path style="fill:url(#SVGID_00000015349908155204316510000000283833867730237616_);" d="M1234.594,3107.88
					c0.234,5.748,11.981,25.457,18.846,36.516c3.262,5.255,8.979,8.466,15.164,8.482c3.923,0.011,8.433-0.331,12.528-1.507
					c6.149-1.765,9.6-8.314,7.802-14.453l-13.415-45.807L1234.594,3107.88z"/>
				
					<linearGradient id="SVGID_00000103226885107943516720000006742495603707055748_" gradientUnits="userSpaceOnUse" x1="1106.5426" y1="3086.9033" x2="1120.2231" y2="2621.7683">
					<stop  offset="0" style="stop-color:#2B3582"/>
					<stop  offset="1" style="stop-color:#150E42"/>
				</linearGradient>
				<path style="fill:url(#SVGID_00000103226885107943516720000006742495603707055748_);" d="M954.799,2571.818
					c0,0-43.262,115.679,0,150.857s146.467,74.785,169.521,144.853c23.055,70.068,62.179,206.24,114.536,254.467
					c0,0,36.787-3.564,50.553-18.221c0,0-29.819-203.286-49.486-255.447c-17.031-45.171-42.125-110.371-90.214-146.813
					c-13.766-10.432-11.368-26.956-4.985-43.005l11.623-29.226L954.799,2571.818z"/>
				
					<linearGradient id="SVGID_00000029033594347576272200000005508291721020831393_" gradientUnits="userSpaceOnUse" x1="1445.645" y1="2634.5425" x2="1310.7949" y2="2423.4731">
					<stop  offset="0" style="stop-color:#CB236D"/>
					<stop  offset="1" style="stop-color:#4C246D"/>
				</linearGradient>
				<path style="fill:url(#SVGID_00000029033594347576272200000005508291721020831393_);" d="M1405.997,2481.152
					c-72.538,4.374-49.935-111.513-48.628-116.123l-110.094,77.763c0,0,5.829,61.973,97.362,94.481
					c23.158,8.224,44.324,8.588,63.037,4.565C1399.695,2518.568,1401.318,2497.687,1405.997,2481.152z"/>
				
					<linearGradient id="SVGID_00000181046605560851521030000017047917561495514790_" gradientUnits="userSpaceOnUse" x1="1551.817" y1="2160.156" x2="1497.6714" y2="2513.2776">
					<stop  offset="0" style="stop-color:#F9B776"/>
					<stop  offset="1" style="stop-color:#F47960"/>
				</linearGradient>
				<path style="fill:url(#SVGID_00000181046605560851521030000017047917561495514790_);" d="M1546.256,2446.272
					c-27.031-18.802-57.653,0-57.653,0c-36.142,23.637-62.881,33.691-82.606,34.88c-4.68,16.535-6.302,37.416,1.678,60.687
					c40.489-8.703,69.456-38.006,82.043-53.041c4.531-5.413,12.556-6.354,18.097-1.98c5.629,4.443,11.095,10.53,10.104,16.935
					c-1.954,12.632,12.703,16.647,13.808,12.067c1.105-4.582-5.014-31.739-5.014-31.739s29.315,29.479,40.759,40.807
					c11.444,11.328,25.834,0,25.834,0S1573.287,2465.075,1546.256,2446.272z"/>
				
					<linearGradient id="SVGID_00000138555720512580871090000009364846157892878232_" gradientUnits="userSpaceOnUse" x1="1242.7574" y1="2294.5496" x2="665.6953" y2="2793.9954">
					<stop  offset="0" style="stop-color:#CB236D"/>
					<stop  offset="1" style="stop-color:#4C246D"/>
				</linearGradient>
				<path style="fill:url(#SVGID_00000138555720512580871090000009364846157892878232_);" d="M1067.763,2186.061
					c0,0,105.53-42.253,301.925,119.888c0,0,16.404,33.956-1.492,64.179c-17.896,30.223-188.412,177.488-211.849,259.155
					c0,0-101.587,33.009-206.645-45.266C949.703,2584.017,958.974,2356.729,1067.763,2186.061z"/>
				
					<linearGradient id="SVGID_00000115510204023994689850000005810927824539204482_" gradientUnits="userSpaceOnUse" x1="1219.6398" y1="2207.677" x2="1346.5099" y2="2207.677">
					<stop  offset="0" style="stop-color:#F9B776"/>
					<stop  offset="1" style="stop-color:#F47960"/>
				</linearGradient>
				<path style="fill:url(#SVGID_00000115510204023994689850000005810927824539204482_);" d="M1276.384,2148.354l-51.95,62.978
					c-5.158,6.253-6.294,14.951-2.726,22.229c7.21,14.709,24.319,36.122,62.264,33.162c11.287-0.881,21.283-7.692,26.214-17.884
					l36.325-75.091L1276.384,2148.354z"/>
				
					<linearGradient id="SVGID_00000013184384255132669680000001988283459362192298_" gradientUnits="userSpaceOnUse" x1="1168.5559" y1="2208.8167" x2="591.4928" y2="2708.2632">
					<stop  offset="0" style="stop-color:#CB236D"/>
					<stop  offset="1" style="stop-color:#4C246D"/>
				</linearGradient>
				<path style="fill:url(#SVGID_00000013184384255132669680000001988283459362192298_);" d="M986.06,2455.786
					c-12.251-49.893,111.839-161.125,111.839-161.125l-30.136-108.6c0,0-267.95,178.377-199.666,321.823
					c9.789,20.564,22.79,34.969,37.864,44.601C927.537,2494.407,961.921,2467.772,986.06,2455.786z"/>
				
					<linearGradient id="SVGID_00000137815168631127577260000004005449741027357601_" gradientUnits="userSpaceOnUse" x1="1592.9772" y1="2085.0447" x2="1301.0635" y2="2233.3557">
					<stop  offset="0" style="stop-color:#CB236D"/>
					<stop  offset="1" style="stop-color:#4C246D"/>
				</linearGradient>
				<path style="fill:url(#SVGID_00000137815168631127577260000004005449741027357601_);" d="M985.972,2448.522
					c-1.317,0-2.515-0.893-2.844-2.233c-12.528-51.012,107.611-159.413,112.73-164.005c1.202-1.076,3.054-0.981,4.141,0.225
					c1.08,1.206,0.977,3.061-0.225,4.141c-1.229,1.099-122.647,110.619-110.951,158.241c0.385,1.573-0.576,3.161-2.149,3.546
					C986.442,2448.495,986.205,2448.522,985.972,2448.522z"/>
				
					<linearGradient id="SVGID_00000112598142367164145770000017749431247521748629_" gradientUnits="userSpaceOnUse" x1="1133.1234" y1="2492.1787" x2="647.3968" y2="3336.2288">
					<stop  offset="0" style="stop-color:#F9B776"/>
					<stop  offset="1" style="stop-color:#F47960"/>
				</linearGradient>
				<path style="fill:url(#SVGID_00000112598142367164145770000017749431247521748629_);" d="M1174.01,2451.492
					c0,0-147.124,57.121-183.035,14.156c-2.435-2.914-4.023-6.231-4.914-9.861c-24.139,11.986-58.524,38.62-80.1,96.698
					c77.379,49.445,209.64-27.507,245.403-50.192c5.883-3.732,12.941-5.041,19.762-3.626c13.794,2.86,37.622,7.066,50.473,5.086
					c18.801-2.896,45.805,63.422,76.277,42.966C1297.876,2546.719,1271.783,2431.444,1174.01,2451.492z"/>
				<g>
					
						<linearGradient id="SVGID_00000011715362930703098440000001781554778140797576_" gradientUnits="userSpaceOnUse" x1="11773.9219" y1="2094.7864" x2="11766.8604" y2="2301.9436" gradientTransform="matrix(0.8667 0.4989 -0.4989 0.8667 -8374.8066 -4673.8311)">
						<stop  offset="0" style="stop-color:#F9B776"/>
						<stop  offset="1" style="stop-color:#F47960"/>
					</linearGradient>
					<path style="fill:url(#SVGID_00000011715362930703098440000001781554778140797576_);" d="M1401.843,2092.081
						c0,0-7.63,67.979-22.464,97.424c-14.835,29.445-19.344,51.496-55.64,38.251c-36.296-13.246-54.625-45.677-53.32-82.763
						c0,0,1.621-57.37,17.236-72.257C1303.27,2057.847,1401.843,2092.081,1401.843,2092.081z"/>
					
						<linearGradient id="SVGID_00000163787232817601880420000000092948532775616665_" gradientUnits="userSpaceOnUse" x1="11744.1758" y1="947.3065" x2="11885.5049" y2="1129.2675" gradientTransform="matrix(0.8667 0.4989 -0.4989 0.8667 -8374.8066 -4673.8311)">
						<stop  offset="0" style="stop-color:#2B3582"/>
						<stop  offset="1" style="stop-color:#150E42"/>
					</linearGradient>
					<path style="fill:url(#SVGID_00000163787232817601880420000000092948532775616665_);" d="M1293.454,2131.049l4.17,2.401
						c0,0,3.107-45.137,21.769-42.637c18.662,2.5,85.488,24.732,110.608,10.94c24.216-13.297,28.335-46.109,15.994-63.059
						c-0.78-1.072-2.303-1.291-3.426-0.584l-2.873,1.809c-1.967,1.24-4.443-0.544-3.889-2.803l0,0
						c0.526-2.142-1.718-3.968-3.663-2.927c-7.603,4.072-24.238,8.235-55.972-2.985c-45.027-15.92-81.419-14.937-98.274,12.813
						c-1.068,1.758-3.538,1.644-4.527-0.16c-1.951-3.561-6.264-7.189-15.802-5.484c-16.586,2.964-26.046,29.974-13.09,64.132
						c0.616,1.623-0.44,3.436-2.173,3.531c-6.106,0.335-16.687,3.403-4.81,22.45c12.15,19.485,23.125,24.441,27.621,25.694
						c1.21,0.337,2.473-0.216,3.031-1.341l12.811-25.816c0.663-1.335,2.314-1.834,3.605-1.091L1293.454,2131.049z"/>
					
						<linearGradient id="SVGID_00000101803625149398518770000005213282337189910710_" gradientUnits="userSpaceOnUse" x1="11722.8047" y1="2093.0549" x2="11715.7422" y2="2300.2148" gradientTransform="matrix(0.8667 0.4989 -0.4989 0.8667 -8374.8066 -4673.8311)">
						<stop  offset="0" style="stop-color:#F9B776"/>
						<stop  offset="1" style="stop-color:#F47960"/>
					</linearGradient>
					<path style="fill:url(#SVGID_00000101803625149398518770000005213282337189910710_);" d="M1291.476,2136.854
						c0,0,10.962-39.919-10.21-39.145c-21.172,0.773-14.318,43.554-2.551,52.059L1291.476,2136.854z"/>
				</g>
			</g>
			<g>
				
					<linearGradient id="SVGID_00000052787519354606767690000004847094081556997269_" gradientUnits="userSpaceOnUse" x1="12379.207" y1="3152.4634" x2="12130.4971" y2="3220.6282" gradientTransform="matrix(-0.9988 -0.0494 -0.0494 0.9988 13717.0957 -55.0327)">
					<stop  offset="0" style="stop-color:#2B3582"/>
					<stop  offset="1" style="stop-color:#150E42"/>
				</linearGradient>
				<path style="fill:url(#SVGID_00000052787519354606767690000004847094081556997269_);" d="M1249.383,2564.132
					c0.236,0.012,0.472,0.018,0.71,0.016l308.686-0.337c7.631-0.006,13.81-6.199,13.802-13.83
					c-0.008-7.634-6.222-13.94-13.833-13.802l-308.686,0.337c-7.631,0.006-13.81,6.199-13.802,13.83
					C1236.269,2557.739,1242.083,2563.771,1249.383,2564.132z"/>
				
					<linearGradient id="SVGID_00000034780726509772103820000008568889927495210405_" gradientUnits="userSpaceOnUse" x1="12141.998" y1="2321.446" x2="11965.5273" y2="2507.9648" gradientTransform="matrix(-1 0 0 1 13675.626 0)">
					<stop  offset="0" style="stop-color:#2B3582"/>
					<stop  offset="1" style="stop-color:#150E42"/>
				</linearGradient>
				<path style="fill:url(#SVGID_00000034780726509772103820000008568889927495210405_);" d="M1836.274,2283.864h-257.076
					c-18.964,0-36.226,10.944-44.315,28.097l-118.846,252.006h319.477c12.221,0,23.202-7.467,27.693-18.833l92.16-233.194
					C1860.693,2298.466,1850.762,2283.864,1836.274,2283.864z"/>
				
					<linearGradient id="SVGID_00000135683883075136266920000000966596150986666431_" gradientUnits="userSpaceOnUse" x1="12035.3135" y1="2367.8879" x2="11955.2422" y2="2488.4661" gradientTransform="matrix(-1 0 0 1 13675.626 0)">
					<stop  offset="0" style="stop-color:#53D8FF"/>
					<stop  offset="1" style="stop-color:#3840F7"/>
				</linearGradient>
				<path style="fill:url(#SVGID_00000135683883075136266920000000966596150986666431_);" d="M1655.162,2413.075
					c-5.571,17.308-1.455,34.117,9.192,37.544c10.648,3.427,23.795-7.826,29.366-25.134c5.571-17.308,1.455-34.117-9.192-37.544
					C1673.88,2384.515,1660.733,2395.768,1655.162,2413.075z"/>
			</g>
			<g>
				<g>
					
						<linearGradient id="SVGID_00000053512006130728079420000013134346781352397222_" gradientUnits="userSpaceOnUse" x1="11868.0605" y1="2907.5081" x2="12166.0615" y2="2907.5081" gradientTransform="matrix(-1 0 0 1 13675.626 0)">
						<stop  offset="0" style="stop-color:#9CFFFB"/>
						<stop  offset="1" style="stop-color:#9BFFFA"/>
					</linearGradient>
					<path style="fill:url(#SVGID_00000053512006130728079420000013134346781352397222_);" d="M1794.597,3226.205
						c1.71,0,3.448-0.331,5.12-1.026c6.581-2.741,9.621-10.128,6.79-16.499l-272.05-612.273c-2.829-6.369-10.455-9.31-17.042-6.573
						c-6.581,2.741-9.621,10.127-6.79,16.499l272.05,612.273C1784.786,3223.358,1789.57,3226.205,1794.597,3226.205z"/>
					
						<linearGradient id="SVGID_00000127016594156285585030000000586277584823199408_" gradientUnits="userSpaceOnUse" x1="11902.4746" y1="2907.5068" x2="12200.4746" y2="2907.5068" gradientTransform="matrix(-1 0 0 1 13675.626 0)">
						<stop  offset="0" style="stop-color:#9CFFFB"/>
						<stop  offset="1" style="stop-color:#9BFFFA"/>
					</linearGradient>
					<path style="fill:url(#SVGID_00000127016594156285585030000000586277584823199408_);" d="M1488.12,3226.205
						c5.027,0,9.811-2.845,11.922-7.599l272.05-612.273c2.831-6.371-0.209-13.758-6.79-16.499c-6.577-2.741-14.209,0.2-17.042,6.573
						l-272.05,612.273c-2.831,6.371,0.209,13.758,6.79,16.499C1484.671,3225.874,1486.41,3226.205,1488.12,3226.205z"/>
					
						<linearGradient id="SVGID_00000165231044816531528560000001493006578640337318_" gradientUnits="userSpaceOnUse" x1="12710.1738" y1="2907.5081" x2="13008.1738" y2="2907.5081" gradientTransform="matrix(-1 0 0 1 13675.626 0)">
						<stop  offset="0" style="stop-color:#9CFFFB"/>
						<stop  offset="1" style="stop-color:#9BFFFA"/>
					</linearGradient>
					<path style="fill:url(#SVGID_00000165231044816531528560000001493006578640337318_);" d="M952.484,3226.205
						c1.71,0,3.448-0.331,5.12-1.026c6.581-2.741,9.621-10.128,6.79-16.499l-272.05-612.273c-2.831-6.369-10.453-9.31-17.042-6.573
						c-6.581,2.741-9.621,10.127-6.79,16.499l272.05,612.273C942.673,3223.358,947.457,3226.205,952.484,3226.205z"/>
					
						<linearGradient id="SVGID_00000097477441221096756530000005842379793316565168_" gradientUnits="userSpaceOnUse" x1="12744.585" y1="2907.5068" x2="13042.585" y2="2907.5068" gradientTransform="matrix(-1 0 0 1 13675.626 0)">
						<stop  offset="0" style="stop-color:#9CFFFB"/>
						<stop  offset="1" style="stop-color:#9BFFFA"/>
					</linearGradient>
					<path style="fill:url(#SVGID_00000097477441221096756530000005842379793316565168_);" d="M646.01,3226.205
						c5.027,0,9.811-2.845,11.922-7.599l272.05-612.273c2.831-6.371-0.209-13.758-6.79-16.499c-6.576-2.741-14.209,0.2-17.042,6.573
						L634.1,3208.681c-2.831,6.371,0.209,13.758,6.79,16.499C642.56,3225.874,644.3,3226.205,646.01,3226.205z"/>
				</g>
				
					<linearGradient id="SVGID_00000057119955421209918840000001517034584026463644_" gradientUnits="userSpaceOnUse" x1="11797.792" y1="2594.7429" x2="13061.749" y2="2594.7429" gradientTransform="matrix(-1 0 0 1 13675.626 0)">
					<stop  offset="0" style="stop-color:#9CFFFB"/>
					<stop  offset="1" style="stop-color:#9BFFFA"/>
				</linearGradient>
				<path style="fill:url(#SVGID_00000057119955421209918840000001517034584026463644_);" d="M614.1,2577.505
					c-0.694-4.016,0.251-8.169,2.576-11.324c2.325-3.155,5.787-4.982,9.441-4.982h1237.631c4.805,0,9.278,2.741,11.867,7.273
					c2.589,4.532,2.936,10.228,0.921,15.111l-13.412,32.498c-3.071,7.442-9.725,12.207-17.048,12.207H634.609
					c-6.811,0-12.666-5.407-13.96-12.895L614.1,2577.505z"/>
			</g>
		</g>
	</g>
</g>
</svg>
